# xmcd
#
# Track frame offsets:
#	14379
#	30020
#	44411
#	61887
#	80556
#	90912
#	112460
#	132106
#	149233
#	158523
#	173404
#
# Disc length: 2599 seconds
#
# Revision: 1
# Processed by: cddbd v1.5.1PL2 Copyright (c) Steve Scherf et al.
# Submitted via: audiograbber 1.83.01
#
DISCID=9009680b
DTITLE=Cuban Heels - Gutbucketmusic
DYEAR=2006
DGENRE=blues
TTITLE0=you know how
TTITLE1=over the hill
TTITLE2=don't leave me
TTITLE3=dig me a hole
TTITLE4=gutbucket
TTITLE5=devil's door
TTITLE6=so unfair
TTITLE7=motherless child
TTITLE8=you've got to move
TTITLE9=as I holler
TTITLE10=work me baby
EXTD=
EXTT0=
EXTT1=
EXTT2=
EXTT3=
EXTT4=
EXTT5=
EXTT6=
EXTT7=
EXTT8=
EXTT9=
EXTT10=
PLAYORDER=
